<svg xmlns="http://www.w3.org/2000/svg" fill="none" viewBox="0.57 0.86 560.05 313.03">
<path d="M0.89025 21.38C0.89025 10.04 8.01825 0.859995 24.8663 0.859995C36.5303 0.859995 47.1143 6.368 47.1143 20.516H36.3143C36.3143 13.28 30.0503 10.58 25.0823 10.58C14.2822 10.58 12.7703 16.844 12.7703 21.164C12.7703 37.04 47.2223 32.18 47.2223 55.94C47.2223 67.28 39.5543 77.54 22.7063 77.54C11.0423 77.54 0.56625 72.032 0.56625 57.884H11.3663C11.3663 65.12 17.3063 67.82 22.4903 67.82C33.2903 67.82 35.3423 60.476 35.3423 56.156C35.4503 40.28 0.89025 45.14 0.89025 21.38ZM52.6383 50C52.6383 34.016 65.8143 22.46 80.7183 22.46C95.6223 22.46 108.798 34.016 108.798 50C108.798 65.984 95.6223 77.54 80.7183 77.54C65.8143 77.54 52.6383 65.984 52.6383 50ZM63.9783 50C63.9783 60.152 71.6463 67.82 80.7183 67.82C89.7903 67.82 97.4583 60.152 97.4583 50C97.4583 39.848 89.7903 32.18 80.7183 32.18C71.6463 32.18 63.9783 39.848 63.9783 50ZM153.68 10.472L144.284 15.872C144.176 12.74 141.908 10.58 138.56 10.58C135.212 10.58 132.944 12.848 132.944 16.196V26.132H145.472V35.852H132.944V77H122.144V35.852H116.312V26.132H122.144V17.708C122.144 7.88 128.624 0.859995 138.776 0.859995C145.904 0.859995 151.304 4.64 153.68 10.472ZM188.263 26.132V35.852H175.735V60.908C175.735 65.228 178.003 67.82 181.351 67.82C182.755 67.82 184.051 67.388 185.023 66.74L188.047 76.352C186.103 77.108 183.943 77.54 181.567 77.54C171.415 77.54 164.935 70.52 164.935 60.692V35.852H159.103V26.132H164.935V10.796L175.735 10.904V26.132H188.263ZM209.6 77L195.776 23H206.468L217.916 67.604H219.428V67.712L230.876 23H245.564L257.012 67.604H258.524V67.712L269.972 23H280.664L266.84 77H248.696L238.976 38.984H237.464L227.744 77H209.6ZM287.565 26.78C292.101 24.08 297.285 22.46 302.793 22.46C317.697 22.46 330.873 32.396 330.873 50V77H320.073V73.868H318.561C313.701 76.46 308.733 77.54 304.413 77.54C296.313 77.54 284.973 73.652 284.973 61.664C284.973 48.812 297.501 45.572 304.737 45.572C311.001 45.572 315.105 47.732 318.453 50H320.073C320.073 38.552 311.865 32.18 302.793 32.18C299.013 32.18 295.557 33.476 292.749 35.744L287.565 26.78ZM319.101 61.988V60.368C316.833 58.424 313.593 55.292 305.925 55.292C302.685 55.292 295.773 55.832 295.773 61.448C295.773 66.416 301.713 68.252 305.601 68.252C310.893 68.252 315.969 64.904 319.209 61.988H319.101ZM382.588 36.5L373.084 41.9C371.788 33.044 365.848 32.18 362.068 32.18C349.972 32.18 349.216 41.036 349.216 47.732V77H338.416V23H349.216V26.024H350.836C352.456 24.296 355.588 22.46 362.176 22.46C371.896 22.46 379.456 27.752 382.588 36.5ZM398.16 54.644V56.048C400.536 63.068 406.8 67.82 413.928 67.82C419.112 67.82 423.864 65.336 426.888 61.34L434.448 68.9C429.264 74.3 421.812 77.54 413.928 77.54C399.024 77.54 385.848 65.984 385.848 50C385.848 34.016 399.024 22.46 413.928 22.46C433.368 22.46 442.332 37.04 441.9 54.644H398.16ZM398.16 43.952V45.464H429.696V43.952C427.428 37.04 421.056 32.18 413.928 32.18C406.8 32.18 400.536 36.932 398.16 43.952ZM0.56625 182V106.4H47.5463V115.58H11.3663V139.448H36.7463V148.628H11.3663V172.82H47.5463V182H0.56625ZM55.0641 182V128H65.8641V131.024H67.4841C69.1041 129.296 72.2361 127.46 78.8241 127.46C91.7841 127.46 100.856 136.856 100.856 151.112V182H90.0561V151.112C90.0561 138.26 83.0361 137.18 78.8241 137.18C66.6201 137.18 65.8641 146.036 65.8641 152.732V182H55.0641ZM107.347 155C107.347 139.016 120.523 127.46 135.535 127.46H164.695V137.18H158.215V138.8C161.563 143.228 163.507 148.844 163.507 155V181.352C163.507 197.336 150.331 208.892 135.427 208.892C127.543 208.892 120.091 205.652 114.907 200.252L122.467 192.692C125.491 196.688 130.243 199.172 135.427 199.172C144.499 199.172 152.707 191.504 152.707 181.352V177.896H151.087C146.551 180.812 141.151 182.54 135.427 182.54C120.523 182.54 107.347 170.984 107.347 155ZM118.687 155C118.687 165.152 126.355 172.82 135.427 172.82C144.499 172.82 152.167 165.152 152.167 155C152.167 144.848 144.499 137.18 135.427 137.18C126.355 137.18 118.687 144.848 118.687 155ZM172.394 117.2L172.286 106.4H183.086L183.194 117.2H172.394ZM172.286 182V128H183.086V182H172.286ZM190.714 182V128H201.514V131.024H203.134C204.754 129.296 207.886 127.46 214.474 127.46C227.434 127.46 236.506 136.856 236.506 151.112V182H225.706V151.112C225.706 138.26 218.686 137.18 214.474 137.18C202.27 137.18 201.514 146.036 201.514 152.732V182H190.714ZM255.309 159.644V161.048C257.685 168.068 263.949 172.82 271.077 172.82C276.261 172.82 281.013 170.336 284.037 166.34L291.597 173.9C286.413 179.3 278.961 182.54 271.077 182.54C256.173 182.54 242.997 170.984 242.997 155C242.997 139.016 256.173 127.46 271.077 127.46C290.517 127.46 299.481 142.04 299.049 159.644H255.309ZM255.309 148.952V150.464H286.845V148.952C284.577 142.04 278.205 137.18 271.077 137.18C263.949 137.18 257.685 141.932 255.309 148.952ZM317.928 159.644V161.048C320.304 168.068 326.568 172.82 333.696 172.82C338.88 172.82 343.632 170.336 346.656 166.34L354.216 173.9C349.032 179.3 341.58 182.54 333.696 182.54C318.792 182.54 305.616 170.984 305.616 155C305.616 139.016 318.792 127.46 333.696 127.46C353.136 127.46 362.1 142.04 361.668 159.644H317.928ZM317.928 148.952V150.464H349.464V148.952C347.196 142.04 340.824 137.18 333.696 137.18C326.568 137.18 320.304 141.932 317.928 148.952ZM413.461 141.5L403.957 146.9C402.661 138.044 396.721 137.18 392.941 137.18C380.845 137.18 380.089 146.036 380.089 152.732V182H369.289V128H380.089V131.024H381.709C383.329 129.296 386.461 127.46 393.049 127.46C402.769 127.46 410.329 132.752 413.461 141.5ZM420.098 117.2L419.99 106.4H430.79L430.898 117.2H420.098ZM419.99 182V128H430.79V182H419.99ZM438.418 182V128H449.218V131.024H450.838C452.458 129.296 455.59 127.46 462.178 127.46C475.138 127.46 484.21 136.856 484.21 151.112V182H473.41V151.112C473.41 138.26 466.39 137.18 462.178 137.18C449.974 137.18 449.218 146.036 449.218 152.732V182H438.418ZM490.701 155C490.701 139.016 503.877 127.46 518.889 127.46H548.049V137.18H541.569V138.8C544.917 143.228 546.861 148.844 546.861 155V181.352C546.861 197.336 533.685 208.892 518.781 208.892C510.897 208.892 503.445 205.652 498.261 200.252L505.821 192.692C508.845 196.688 513.597 199.172 518.781 199.172C527.853 199.172 536.061 191.504 536.061 181.352V177.896H534.441C529.905 180.812 524.505 182.54 518.781 182.54C503.877 182.54 490.701 170.984 490.701 155ZM502.041 155C502.041 165.152 509.709 172.82 518.781 172.82C527.853 172.82 535.521 165.152 535.521 155C535.521 144.848 527.853 137.18 518.781 137.18C509.709 137.18 502.041 144.848 502.041 155ZM0.56625 287V211.4H11.3663V287H0.56625ZM18.8883 287V233H29.6883V236.024H31.3083C32.9283 234.296 36.0603 232.46 42.6483 232.46C55.6083 232.46 64.6803 241.856 64.6803 256.112V287H53.8803V256.112C53.8803 243.26 46.8603 242.18 42.6483 242.18C30.4443 242.18 29.6883 251.036 29.6883 257.732V287H18.8883ZM74.8179 236.78C79.3539 234.08 84.5379 232.46 90.0459 232.46C104.95 232.46 118.126 242.396 118.126 260V287H107.326V283.868H105.814C100.954 286.46 95.9859 287.54 91.6659 287.54C83.5659 287.54 72.2259 283.652 72.2259 271.664C72.2259 258.812 84.7539 255.572 91.9899 255.572C98.2539 255.572 102.358 257.732 105.706 260H107.326C107.326 248.552 99.1179 242.18 90.0459 242.18C86.2659 242.18 82.8099 243.476 80.0019 245.744L74.8179 236.78ZM106.354 271.988V270.368C104.086 268.424 100.846 265.292 93.1779 265.292C89.9379 265.292 83.0259 265.832 83.0259 271.448C83.0259 276.416 88.9659 278.252 92.8539 278.252C98.1459 278.252 103.222 274.904 106.462 271.988H106.354ZM171.461 233V287H160.661V283.976H159.041C157.421 285.704 154.289 287.54 147.701 287.54C134.741 287.54 125.669 278.144 125.669 263.888V233H136.469V263.888C136.469 276.74 143.489 277.82 147.701 277.82C159.905 277.82 160.661 268.964 160.661 262.268V233H171.461ZM177.952 260C177.952 244.016 191.128 232.46 206.14 232.46H235.3V242.18H228.82V243.8C232.168 248.228 234.112 253.844 234.112 260V286.352C234.112 302.336 220.936 313.892 206.032 313.892C198.148 313.892 190.696 310.652 185.512 305.252L193.072 297.692C196.096 301.688 200.848 304.172 206.032 304.172C215.104 304.172 223.312 296.504 223.312 286.352V282.896H221.692C217.156 285.812 211.756 287.54 206.032 287.54C191.128 287.54 177.952 275.984 177.952 260ZM189.292 260C189.292 270.152 196.96 277.82 206.032 277.82C215.104 277.82 222.772 270.152 222.772 260C222.772 249.848 215.104 242.18 206.032 242.18C196.96 242.18 189.292 249.848 189.292 260ZM288.683 233V287H277.883V283.976H276.263C274.643 285.704 271.511 287.54 264.923 287.54C251.963 287.54 242.891 278.144 242.891 263.888V233H253.691V263.888C253.691 276.74 260.711 277.82 264.923 277.82C277.127 277.82 277.883 268.964 277.883 262.268V233H288.683ZM340.401 246.5L330.897 251.9C329.601 243.044 323.661 242.18 319.881 242.18C307.785 242.18 307.029 251.036 307.029 257.732V287H296.229V233H307.029V236.024H308.649C310.269 234.296 313.401 232.46 319.989 232.46C329.709 232.46 337.269 237.752 340.401 246.5ZM346.252 236.78C350.788 234.08 355.972 232.46 361.48 232.46C376.384 232.46 389.56 242.396 389.56 260V287H378.76V283.868H377.248C372.388 286.46 367.42 287.54 363.1 287.54C355 287.54 343.66 283.652 343.66 271.664C343.66 258.812 356.188 255.572 363.424 255.572C369.688 255.572 373.792 257.732 377.14 260H378.76C378.76 248.552 370.552 242.18 361.48 242.18C357.7 242.18 354.244 243.476 351.436 245.744L346.252 236.78ZM377.788 271.988V270.368C375.52 268.424 372.28 265.292 364.612 265.292C361.372 265.292 354.46 265.832 354.46 271.448C354.46 276.416 360.4 278.252 364.288 278.252C369.58 278.252 374.656 274.904 377.896 271.988H377.788ZM426.263 236.132V245.852H413.735V270.908C413.735 275.228 416.003 277.82 419.351 277.82C420.755 277.82 422.051 277.388 423.023 276.74L426.047 286.352C424.103 287.108 421.943 287.54 419.567 287.54C409.415 287.54 402.935 280.52 402.935 270.692V245.852H397.103V236.132H402.935V220.796L413.735 220.904V236.132H426.263ZM433.885 222.2L433.777 211.4H444.577L444.685 222.2H433.885ZM433.777 287V233H444.577V287H433.777ZM451.15 260C451.15 244.016 464.326 232.46 479.23 232.46C494.134 232.46 507.31 244.016 507.31 260C507.31 275.984 494.134 287.54 479.23 287.54C464.326 287.54 451.15 275.984 451.15 260ZM462.49 260C462.49 270.152 470.158 277.82 479.23 277.82C488.302 277.82 495.97 270.152 495.97 260C495.97 249.848 488.302 242.18 479.23 242.18C470.158 242.18 462.49 249.848 462.49 260ZM514.823 287V233H525.623V236.024H527.243C528.863 234.296 531.995 232.46 538.583 232.46C551.543 232.46 560.615 241.856 560.615 256.112V287H549.815V256.112C549.815 243.26 542.795 242.18 538.583 242.18C526.379 242.18 525.623 251.036 525.623 257.732V287H514.823Z" fill="black"/>
</svg>